<?xml version="1.0" encoding="utf-8"?>
<svg version="1.1" xmlns:xlink="http://www.w3.org/1999/xlink" width="170px" height="170px" xmlns="http://www.w3.org/2000/svg">
  <g transform="matrix(1 0 0 1 -188 -307 )">
    <path d="M 273 307.5  C 320.32 307.5  357.5 344.68  357.5 392  C 357.5 439.32  320.32 476.5  273 476.5  C 225.68 476.5  188.5 439.32  188.5 392  C 188.5 344.68  225.68 307.5  273 307.5  Z " fill-rule="nonzero" fill="#ffffff" stroke="none" />
    <path d="M 273 307.5  C 320.32 307.5  357.5 344.68  357.5 392  C 357.5 439.32  320.32 476.5  273 476.5  C 225.68 476.5  188.5 439.32  188.5 392  C 188.5 344.68  225.68 307.5  273 307.5  Z " stroke-width="1" stroke="#797979" fill="none" stroke-opacity="0.00392156862745098" />
  </g>
</svg>